{"title":"Sword.of.Honour.2001.DIVX.La.Vela.avi","uid":4999320,"size":4139069951,"categoryP":"video","categoryS":"movies","magnet":"?xt=urn:btih:20067fc808d478f97b6f9af04b5470b2f4438ad7&amp;dn=Sword.of.Honour.2001.DIVX.La.Vela.avi&amp;tr=udp%3A%2F%2Ftracker.openbittorrent.com%3A80&amp;tr=udp%3A%2F%2Fopen.demonii.com%3A1337&amp;tr=udp%3A%2F%2Ftracker.coppersurfer.tk%3A6969&amp;tr=udp%3A%2F%2Fexodus.desync.com%3A6969","seeders":0,"leechers":1,"uploader":"headdock","files":6,"time":1247437646,"description":"Synopsis: \n\n\nLayered storytelling and rich character development distinguish this British television mini-series based on the semi-autobiographical writings of Evelyn Waugh. Daniel Craig plays Guy Crouchback, a...  Layered storytelling and rich character development distinguish this British television mini-series based on the semi-autobiographical writings of Evelyn Waugh. Daniel Craig plays Guy Crouchback, a soldier fighting with the British forces in the Second World War, and the program charts Crouchback's grappling with the ravages of war, his relationship with his ex-wife, and his own shortcomings. Beautifully put together, executed, and acted, SWORD OF HONOUR is dramatic, absorbing viewing from start to finish.\n\n\nStarring: Daniel Craig, Katrin Cartlidge\n\nStarring: Daniel Craig, Katrin Cartlidge\n\nDirector: Bill Anderson\n\n\nGeneral:\n\nComplete name                    : Sword.of.Honour.2001.DIVX.La.Vela.avi\n\nCD`s                             : 2\nImdb                             : http://www.imdb.com/title/tt0273021/\nLanguage                         : English\nSubtitles                        : N/A\nFormat                           : AVI\nFormat/Info                      : Audio Video Interleave\nFormat profile                   : OpenDML\nFile size                        : 1.90 GiB\nDuration                         : 4h 22mn\nOverall bit rate                 : 1 038 Kbps\nWriting application              : Lavf51.12.1\n\nVideo\nFormat                           : MPEG-4 Visual\nFormat profile                   : Simple@L1\nFormat settings, BVOP            : No\nFormat settings, QPel            : No\nFormat settings, GMC             : No warppoints\nFormat settings, Matrix          : Default\nCodec ID                         : DX50\nCodec ID/Hint                    : DivX 5\nDuration                         : 4h 22mn\nBit rate                         : 937 Kbps\nWidth                            : 720 pixels\nHeight                           : 576 pixels\nDisplay aspect ratio             : 5/4\nFrame rate                       : 25.000 fps\nStandard                         : PAL\nResolution                       : 24 bits\nColorimetry                      : 4:2:0\nScan type                        : Progressive\nBits/(Pixel*Frame)               : 0.090\nStream size                      : 1.72 GiB (90%)\nWriting library                  : Lavc51.40.4\n\nAudio\nFormat                           : MPEG Audio\nFormat version                   : Version 1\nFormat profile                   : Layer 3\nCodec ID                         : 55\nCodec ID/Hint                    : MP3\nDuration                         : 1h 38mn\nBit rate mode                    : Constant\nBit rate                         : 256 Kbps\nChannel(s)                       : 2 channels\nSampling rate                    : 48.0 KHz\nResolution                       : 16 bits\nStream size                      : 180 MiB (9%)\nAlignment                        : Aligned on interleaves\nInterleave, duration             : 24 ms (0.60 video frame)\nInterleave, preload duration     : 24 ms\n\n","torrent":{"xt":"urn:btih:20067fc808d478f97b6f9af04b5470b2f4438ad7","amp;dn":"Sword.of.Honour.2001.DIVX.La.Vela.avi","amp;tr":["udp%3A%2F%2Ftracker.openbittorrent.com%3A80","udp%3A%2F%2Fopen.demonii.com%3A1337","udp%3A%2F%2Ftracker.coppersurfer.tk%3A6969","udp%3A%2F%2Fexodus.desync.com%3A6969"],"infoHash":"20067fc808d478f97b6f9af04b5470b2f4438ad7","infoHashBuffer":{"type":"Buffer","data":[32,6,127,200,8,212,120,249,123,111,154,240,75,84,112,178,244,67,138,215]},"announce":[],"urlList":[]}}